<?xml version="1.0" encoding="UTF-8"?>
<svg version="1.1" xmlns="http://www.w3.org/2000/svg" width="50" height="50">
<path d="M0 0 C1.28753174 0.00607269 1.28753174 0.00607269 2.60107422 0.01226807 C3.92147705 0.00939789 3.92147705 0.00939789 5.26855469 0.00646973 C7.13135056 0.00510755 8.99415591 0.00880625 10.85693359 0.01715088 C13.71457158 0.02785 16.57158088 0.01725675 19.42919922 0.00445557 C21.23649228 0.00577716 23.04378495 0.00833954 24.85107422 0.01226807 C25.70942871 0.0082196 26.5677832 0.00417114 27.45214844 0 C33.49615677 0.04797562 33.49615677 0.04797562 35.72607422 2.27789307 C35.98486328 5.04351807 35.98486328 5.04351807 35.99169922 8.52789307 C35.99556641 10.39961182 35.99556641 10.39961182 35.99951172 12.30914307 C35.99177734 13.61883057 35.98404297 14.92851807 35.97607422 16.27789307 C35.98767578 18.24242432 35.98767578 18.24242432 35.99951172 20.24664307 C35.99693359 21.49445557 35.99435547 22.74226807 35.99169922 24.02789307 C35.98944336 25.17773682 35.9871875 26.32758057 35.98486328 27.51226807 C35.72607422 30.27789307 35.72607422 30.27789307 33.72607422 32.27789307 C30.73645318 32.47795609 27.84145072 32.55762229 24.85107422 32.54351807 C23.53067139 32.54638824 23.53067139 32.54638824 22.18359375 32.54931641 C20.32079788 32.55067858 18.45799252 32.54697988 16.59521484 32.53863525 C13.73757686 32.52793613 10.88056756 32.53852938 8.02294922 32.55133057 C6.21565616 32.55000898 4.40836349 32.5474466 2.60107422 32.54351807 C1.74271973 32.54756653 0.88436523 32.55161499 0 32.55578613 C-6.04400833 32.50781051 -6.04400833 32.50781051 -8.27392578 30.27789307 C-8.53271484 27.51226807 -8.53271484 27.51226807 -8.53955078 24.02789307 C-8.54212891 22.78008057 -8.54470703 21.53226807 -8.54736328 20.24664307 C-8.53962891 18.93695557 -8.53189453 17.62726807 -8.52392578 16.27789307 C-8.53166016 14.96820557 -8.53939453 13.65851807 -8.54736328 12.30914307 C-8.54478516 11.06133057 -8.54220703 9.81351807 -8.53955078 8.52789307 C-8.53729492 7.37804932 -8.53503906 6.22820557 -8.53271484 5.04351807 C-8.01365076 -0.50361211 -4.81380354 0.0382106 0 0 Z M0.72607422 2.27789307 C0.72607422 11.51789307 0.72607422 20.75789307 0.72607422 30.27789307 C9.96607422 30.27789307 19.20607422 30.27789307 28.72607422 30.27789307 C28.72607422 21.03789307 28.72607422 11.79789307 28.72607422 2.27789307 C19.48607422 2.27789307 10.24607422 2.27789307 0.72607422 2.27789307 Z M-4.27392578 15.27789307 C-3.27392578 17.27789307 -3.27392578 17.27789307 -3.27392578 17.27789307 Z " fill="#000000" transform="translate(11.27392578125,8.72210693359375)"/>
</svg>
