<?xml version="1.0" encoding="UTF-8"?>
<svg version="1.1" xmlns="http://www.w3.org/2000/svg" width="24" height="24">
<path d="M0 0 C1.65 0.33 3.3 0.66 5 1 C5 2.98 5 4.96 5 7 C6.98 7 8.96 7 11 7 C11.31563182 12.26053037 10.66590937 15.44573816 8 20 C3.71 20 -0.58 20 -5 20 C-5.08075665 17.70890403 -5.13907731 15.41700733 -5.1875 13.125 C-5.22230469 11.84882813 -5.25710937 10.57265625 -5.29296875 9.2578125 C-5.19628906 8.18273437 -5.09960938 7.10765625 -5 6 C-4.01 5.34 -3.02 4.68 -2 4 C-0.80767387 1.94996045 -0.80767387 1.94996045 0 0 Z M-1.61328125 7.20703125 C-3.39894608 9.51582042 -3.31277232 10.80623671 -3.1875 13.6875 C-3.16042969 14.49574219 -3.13335937 15.30398437 -3.10546875 16.13671875 C-3.07066406 16.75160156 -3.03585938 17.36648437 -3 18 C-0.36 18 2.28 18 5 18 C5.66 16.88625 6.32 15.7725 7 14.625 C7.37125 13.99851562 7.7425 13.37203125 8.125 12.7265625 C9.15068348 11.02527333 9.15068348 11.02527333 9 9 C6.36 9 3.72 9 1 9 C1.33 8.01 1.66 7.02 2 6 C-0.06890838 5.80031033 -0.06890838 5.80031033 -1.61328125 7.20703125 Z " fill="#000000" transform="translate(11,1)"/>
<path d="M0 0 C0.66 0 1.32 0 2 0 C2 4.29 2 8.58 2 13 C1.34 13 0.68 13 0 13 C0 8.71 0 4.42 0 0 Z " fill="#000000" transform="translate(2,8)"/>
</svg>
