<?xml version="1.0" encoding="UTF-8"?>
<svg version="1.1" xmlns="http://www.w3.org/2000/svg" width="50" height="50">
<path d="M0 0 C6.39655172 -0.36206897 6.39655172 -0.36206897 8.875 1.125 C11.33645289 5.22742148 11.17691884 8.87752398 10.0625 13.375 C9.711875 14.57125 9.36125 15.7675 9 17 C9.969375 17.37125 10.93875 17.7425 11.9375 18.125 C15 20 15 20 15.875 23.1875 C15.91625 24.115625 15.9575 25.04375 16 26 C13.69 26 11.38 26 9 26 C9 27.32 9 28.64 9 30 C6.03 30 3.06 30 0 30 C-0.33 31.32 -0.66 32.64 -1 34 C-10.57 34 -20.14 34 -30 34 C-30 32.35 -30 30.7 -30 29 C-27.15224799 26.15224799 -24.88511389 24.83015254 -21 24 C-21.7425 22.2984375 -21.7425 22.2984375 -22.5 20.5625 C-24.17405226 16.0232429 -24.96658786 11.79646428 -24 7 C-21.875 3.9375 -21.875 3.9375 -19 2 C-15.875 1.6875 -15.875 1.6875 -13 2 C-10.0745356 2.2236068 -10.0745356 2.2236068 -8 1 C-2.46153846 0.76923077 -2.46153846 0.76923077 0 2 C0 1.34 0 0.68 0 0 Z M2 4 C3 6 3 6 3 6 Z M3 6 C3 8.31 3 10.62 3 13 C3.33 13 3.66 13 4 13 C4 10.69 4 8.38 4 6 C3.67 6 3.34 6 3 6 Z M-8 7 C-8 10.3 -8 13.6 -8 17 C-7.67 17 -7.34 17 -7 17 C-7 13.7 -7 10.4 -7 7 C-7.33 7 -7.66 7 -8 7 Z M1 15 C2 17 2 17 2 17 Z M0 18 C1 20 1 20 1 20 Z M-10 19 C-9 21 -9 21 -9 21 Z M-11 21 C-10 23 -10 23 -10 23 Z " fill="#000000" transform="translate(32,9)"/>
</svg>
