<?xml version="1.0" encoding="UTF-8"?>
<svg version="1.1" xmlns="http://www.w3.org/2000/svg" width="50" height="50">
<path d="M0 0 C1.38294718 0.01329757 2.76582404 0.03715018 4.1484375 0.0703125 C4.85484375 0.07933594 5.56125 0.08835937 6.2890625 0.09765625 C8.03399848 0.12123647 9.77876045 0.15710789 11.5234375 0.1953125 C11.5234375 1.5153125 11.5234375 2.8353125 11.5234375 4.1953125 C5.5834375 4.6903125 5.5834375 4.6903125 -0.4765625 5.1953125 C-0.4765625 12.4553125 -0.4765625 19.7153125 -0.4765625 27.1953125 C4.40270047 27.74043911 4.40270047 27.74043911 6.8359375 25.1953125 C7.3928125 24.5353125 7.9496875 23.8753125 8.5234375 23.1953125 C10.5034375 25.1753125 12.4834375 27.1553125 14.5234375 29.1953125 C13.03246092 32.9905256 10.76642901 34.80573981 7.5234375 37.1953125 C7.0284375 36.23625 7.0284375 36.23625 6.5234375 35.2578125 C3.51930719 32.15980312 0.7670162 32.59946285 -3.4765625 32.1953125 C-6.23600855 29.43586645 -5.73461927 27.80294552 -5.7421875 23.9453125 C-5.74476563 22.6975 -5.74734375 21.4496875 -5.75 20.1640625 C-5.74226562 18.854375 -5.73453125 17.5446875 -5.7265625 16.1953125 C-5.73429688 14.885625 -5.74203125 13.5759375 -5.75 12.2265625 C-5.74742187 10.97875 -5.74484375 9.7309375 -5.7421875 8.4453125 C-5.73993164 7.29546875 -5.73767578 6.145625 -5.73535156 4.9609375 C-5.33242854 0.65498281 -4.24336262 0.23839116 0 0 Z " fill="#000000" transform="translate(11.4765625,8.8046875)"/>
<path d="M0 0 C0.495 0.639375 0.99 1.27875 1.5 1.9375 C4.13428833 4.11078787 4.8854025 4.3128206 8.125 4.625 C12 5 12 5 14 7 C14.25878906 9.765625 14.25878906 9.765625 14.265625 13.25 C14.26949219 15.12171875 14.26949219 15.12171875 14.2734375 17.03125 C14.26570313 18.3409375 14.25796875 19.650625 14.25 21 C14.25773437 22.3096875 14.26546875 23.619375 14.2734375 24.96875 C14.27085938 26.2165625 14.26828125 27.464375 14.265625 28.75 C14.26336914 29.89984375 14.26111328 31.0496875 14.25878906 32.234375 C14 35 14 35 12 37 C9.41935871 37.14497985 6.95056116 37.18677545 4.375 37.125 C3.66859375 37.11597656 2.9621875 37.10695312 2.234375 37.09765625 C0.48943902 37.07407603 -1.25532295 37.03820461 -3 37 C-3 35.68 -3 34.36 -3 33 C2.94 32.505 2.94 32.505 9 32 C9 24.74 9 17.48 9 10 C4.12073703 9.45487339 4.12073703 9.45487339 1.6875 12 C1.130625 12.66 0.57375 13.32 0 14 C-1.98 12.02 -3.96 10.04 -6 8 C-4.55746343 4.63408134 -2.66735273 2.48952921 0 0 Z " fill="#000000" transform="translate(30,4)"/>
</svg>
