<?xml version="1.0" encoding="UTF-8"?>
<svg version="1.1" xmlns="http://www.w3.org/2000/svg" width="50" height="50">
<path d="M0 0 C3.465 2.97 3.465 2.97 7 6 C4.9957983 10.0084034 3.50944037 11.41409657 0 14 C-1.65 12.68 -3.3 11.36 -5 10 C-5.48108275 11.41601714 -5.95978141 12.83284437 -6.4375 14.25 C-6.70433594 15.03890625 -6.97117187 15.8278125 -7.24609375 16.640625 C-7.49488281 17.41921875 -7.74367188 18.1978125 -8 19 C-8.226875 19.66 -8.45375 20.32 -8.6875 21 C-9.09732883 23.62290453 -8.47311689 25.27312206 -7.5625 27.75 C-7.13130859 28.94882812 -7.13130859 28.94882812 -6.69140625 30.171875 C-6.46324219 30.77515625 -6.23507813 31.3784375 -6 32 C-3.07175348 31.02391783 -1.38573379 29.89213369 1 28 C2.98 29.98 4.96 31.96 7 34 C5.50902342 37.7952131 3.24299151 39.61042731 0 42 C-0.37125 41.38125 -0.7425 40.7625 -1.125 40.125 C-2.90061901 37.75416282 -2.90061901 37.75416282 -6 37 C-9.35090359 35.88303214 -10.33189593 35.05819079 -12 32 C-12 31.01 -12 30.02 -12 29 C-12.66 29 -13.32 29 -14 29 C-14.103125 29.763125 -14.20625 30.52625 -14.3125 31.3125 C-15.07891452 34.30848403 -15.54891943 35.18281958 -18 37 C-20.69921875 37.29296875 -20.69921875 37.29296875 -23.6875 37.1875 C-24.68136719 37.16042969 -25.67523438 37.13335937 -26.69921875 37.10546875 C-27.45847656 37.07066406 -28.21773437 37.03585938 -29 37 C-29 35.68 -29 34.36 -29 33 C-24.545 32.505 -24.545 32.505 -20 32 C-17.35458505 25.31601087 -17.35458505 25.31601087 -17.69140625 18.3359375 C-18.77190181 15.94908007 -18.77190181 15.94908007 -20.01953125 13.77734375 C-21 12 -21 12 -21 10 C-23.64 9.67 -26.28 9.34 -29 9 C-29 7.68 -29 6.36 -29 5 C-25.6192853 4.70967145 -22.37296509 4.57639371 -19 5 C-15.58470896 7.91549235 -14.50483503 10.58269351 -14 15 C-13.34 15 -12.68 15 -12 15 C-11.731875 13.906875 -11.46375 12.81375 -11.1875 11.6875 C-9.65984655 6.94373402 -9.65984655 6.94373402 -7 5 C-5.66666667 4.33333333 -4.33333333 3.66666667 -3 3 C-2.01 2.01 -1.02 1.02 0 0 Z " fill="#000000" transform="translate(37,4)"/>
</svg>
